PathFileType	4	(X/Y/Z)	Patient3_L_KneeIso_Processed.trc
DataRate	CameraRate	NumFrames	NumMarkers	Units	OrigDataRate	OrigDataStartFrame	OrigNumFrames
100.000000000000	100.000000000000	4	33	mm	100.000000000000	38	       301
Frame#	Time	L.Toe			R.Toe			L.Midfoot.Superior			Neck			R.Midfoot.Superior			R.Shoulder			L.Shank.Lateral			R.Wrist			L.Shoulder			R.Midfoot.Lateral			L.Heel			R.Heel			R.Patella			L.Wrist			R.Shank.Inferior			R.Shank.Lateral			L.Elbow			L.Asis			L.Shank.Inferior			L.Patella			L.Thigh.Lateral			L.Thigh.Superior			R.Elbow			R.Shank.Superior			L.Thigh.Inferior			R.Thigh.Superior			L.Midfoot.Lateral			R.Thigh.Lateral			L.Shank.Superior			R.Thigh.Inferior			Sacral			R.Asis			Sternum			
		X1	Y1	Z1	X2	Y2	Z2	X3	Y3	Z3	X4	Y4	Z4	X5	Y5	Z5	X6	Y6	Z6	X7	Y7	Z7	X8	Y8	Z8	X9	Y9	Z9	X10	Y10	Z10	X11	Y11	Z11	X12	Y12	Z12	X13	Y13	Z13	X14	Y14	Z14	X15	Y15	Z15	X16	Y16	Z16	X17	Y17	Z17	X18	Y18	Z18	X19	Y19	Z19	X20	Y20	Z20	X21	Y21	Z21	X22	Y22	Z22	X23	Y23	Z23	X24	Y24	Z24	X25	Y25	Z25	X26	Y26	Z26	X27	Y27	Z27	X28	Y28	Z28	X29	Y29	Z29	X30	Y30	Z30	X31	Y31	Z31	X32	Y32	Z32	X33	Y33	Z33	

38	1.370000000000	453.784238143058	93.811991737935	325.565745516304	689.900116980363	42.264553103429	588.940865855679	392.676471312867	205.796126795645	342.692235682920	453.143775938649	1485.132138341752	648.121463744045	564.668161219625	91.457880511748	590.425955115730	477.810700385749	1437.435111385863	795.499968726756	486.525023882775	461.867942808028	322.574266429625	571.116790177198	1164.409279149701	1113.547523129366	502.463546346047	1473.915342406319	509.820308964903	478.260479576621	30.436230452969	638.530225148252	222.467822176170	273.139926348094	361.853905450221	390.725972094771	36.924086121843	580.460916361457	602.092699647981	493.018077229471	650.868365200849	655.727065148591	1316.488363711914	504.973699701469	532.276496572689	214.370452684867	623.947777303391	485.524749659723	341.182500623230	708.618492536138	537.536446069070	1185.109241695102	325.491123574122	579.894900455852	994.213442399810	456.160646906532	462.630699072764	335.345012077504	364.932068909420	692.271335247314	508.080966206163	420.655693987810	590.226705777770	700.701954356511	371.525922943718	662.897529678889	783.258873027406	438.435102509152	385.224519031904	1128.446197605724	941.665323614639	568.195855017289	384.342775599382	656.293297275087	685.732553531255	656.458100067863	428.613197704002	627.142020120955	713.024834378724	694.874977953544	284.823661579264	224.028818443113	298.421961060846	537.329972507807	656.107386387267	741.329605368139	586.764845627642	432.374257543477	380.426557790388	614.759014828863	600.663663034143	669.993166125413	410.489841886615	1004.563799063721	595.367327628977	583.908903928284	972.388214801941	718.981740362773	590.205305206635	1392.212340789673	651.269265984621	
39	1.380000000000	445.064515273287	98.344582270387	324.887559592994	689.903494144132	42.266078519879	588.937844143260	386.706051999133	211.772651787524	342.251308607000	453.324984618418	1485.132264113710	648.229969569409	564.682645204818	91.471196412524	590.421454510306	477.956124744626	1437.392197779669	795.619527178467	486.512431423060	465.436602834866	322.417404896840	571.153190382222	1164.348500943785	1113.616834784995	502.671545328921	1473.928643832569	509.935592759471	478.265276087636	30.439002802824	638.526438330280	218.179023074160	283.155801138677	361.654423323669	390.742792379475	36.934174450829	580.478162973400	602.158332775307	493.004316539260	650.946828606950	655.896225587645	1316.457035805557	505.102227548210	532.302528572977	214.384319382035	623.989635000233	485.533124910284	341.194666310561	708.645724938757	537.717512772456	1185.154576057854	325.551871815035	580.097685378149	994.225449967746	456.260668491764	459.764375987252	339.480656884603	364.615980455635	693.335689655370	508.158348280667	420.419131178027	591.087334397565	700.933323705592	371.309411055001	663.507009558622	783.583226441345	438.363427575239	385.276777273585	1128.404242371702	941.714032805543	568.230647923509	384.332118834172	656.343549388869	686.813479388404	656.860289466308	428.460230768079	627.190944431633	713.011413420885	694.965501212342	279.276469624506	232.661732136822	298.099966419745	537.356592567794	656.105955257988	741.383039465651	586.274118764687	433.528515878799	380.151872166881	614.833128392093	600.665777580407	670.072982039307	410.623328636098	1004.578369288335	595.362369999072	583.979526999739	972.377969358579	719.077147180047	590.356463178669	1392.168761511883	651.398614839209	
40	1.390000000000	436.355522061451	103.115973131770	324.248588482921	689.906821597948	42.271306359643	588.936336261418	380.791219325508	217.926959696928	341.844186683264	453.504393737411	1485.129045620775	648.327996030191	564.697830671018	91.488446878453	590.419112231076	478.099724477551	1437.348381368207	795.729167978022	486.504215603636	469.030196181995	322.287487972294	571.193057295425	1164.287217611921	1113.685915860311	502.877416734498	1473.937617369866	510.040523202914	478.270090213832	30.441609034108	638.522281453658	214.043378976748	293.309305798309	361.499577712882	390.757739105942	36.944058521608	580.492187424136	602.242302888834	492.988387606235	651.028854709531	656.066284407867	1316.424534896630	505.222404346746	532.333092627518	214.397772727149	624.035309903185	485.554637460536	341.211824951087	708.675547353626	537.898809669252	1185.190480178106	325.609933910642	580.313894650555	994.235079212408	456.351666783508	456.916165076904	343.699499558679	364.323467187536	694.331462285645	508.216292153199	420.208336007908	591.926258256825	701.155942966843	371.096696005837	664.100438802904	783.884993159732	438.312537425026	385.335060272940	1128.361625517887	941.757058857807	568.277632228411	384.318984769540	656.393027404130	687.859826338697	657.238854603784	428.330826546665	627.254620168193	712.998394731104	695.057270244055	273.845404617954	241.463520440823	297.819182407747	537.394156221320	656.105045841381	741.433090690402	585.730701010920	434.704631300282	379.900072899963	614.924661990703	600.668164086396	670.155411524291	410.769386795113	1004.592055234666	595.346311828626	584.061601203153	972.368475181856	719.166039971075	590.507418448900	1392.124978331653	651.519456532094	
41	1.400000000000	427.665556712282	108.123296662984	323.651564880335	689.910015955016	42.280354090769	588.936347456302	374.938449773796	224.254513044770	341.472304639865	453.681592649430	1485.122501964483	648.415419154069	564.713331934118	91.509483200535	590.419091226531	478.241083217674	1437.304029454245	795.828814969179	486.501431557259	472.644702285404	322.183658552624	571.236231025953	1164.226660202582	1113.754987499732	503.080928621269	1473.942379983887	510.135293710432	478.274802178340	30.444028469705	638.517823218698	210.066143135508	303.591700652759	361.391117645362	390.770537760144	36.953601438973	580.503256996796	602.344636105819	492.970189207138	651.114339739931	656.237783400051	1316.391891069805	505.334447441553	532.367178207453	214.410049914235	624.084750618719	485.588946357590	341.233837967527	708.707415324021	538.082432207248	1185.217864380684	325.664841995575	580.542457625427	994.242240359618	456.433160588503	454.089154259578	347.997143902794	364.055096650573	695.256888322577	508.252207196075	420.022252375640	592.742439176163	701.369095521532	370.888318031815	664.677071369974	784.163538948669	438.282928930827	385.399578534727	1128.318940128882	941.794448477870	568.336891045534	384.303327618218	656.441764716047	688.871025686919	657.592546605008	428.225500260877	627.332711800820	712.985824440037	695.150419604315	268.536574283840	250.426624664112	297.581611242910	537.442284529510	656.104368284890	741.479517397532	585.134227365047	435.902756014320	379.671328399387	615.033112657638	600.670414770628	670.240787556026	410.927441644083	1004.604995578503	595.319487954302	584.154817603478	972.359822678300	719.247988344078	590.657935968610	1392.081613018635	651.631717055776	
